{"title":"Batman vs Superman Dawn of Justice (2016) HDTS x264 - Exclusive","uid":14068652,"size":2366368253,"categoryP":"video","categoryS":"movies","magnet":"?xt=urn:btih:5b937e47986e0fff93d74052d973c8391bd0efb0&amp;dn=Batman+vs+Superman+Dawn+of+Justice+%282016%29+HDTS+x264+-+Exclusive&amp;tr=udp%3A%2F%2Ftracker.leechers-paradise.org%3A6969&amp;tr=udp%3A%2F%2Fzer0day.ch%3A1337&amp;tr=udp%3A%2F%2Fopen.demonii.com%3A1337&amp;tr=udp%3A%2F%2Ftracker.coppersurfer.tk%3A6969&amp;tr=udp%3A%2F%2Fexodus.desync.com%3A6969","seeders":22,"leechers":8,"uploader":"tykoon123","files":1,"time":1459144971,"description":"http://imgh.us/batman-vs-superman-poster.jpg\r\n\r\nVideo: HDCAM peruvian\r\nAudio: THX Th0ravenger for the fantastic Line Audio, (Uploaders from ET are NOT welcome to copy our sources,  come up with your own sources to impress your fans! If you copy ours, then please leave credit too!)\r\n\r\nNote:\r\nThis is a complete video version except for the 3 seconds missing where conversation is not there, so that wont be a problem :)\r\n\r\n\r\nGeneral\r\n\r\nFormat                         : Matroska\r\nFile size                      : 2.20 GiB\r\nDuration                       : 2h 23mn\r\nOverall bit rate mode          : Variable\r\nOverall bit rate               : 2 197 Kbps\r\nEncoded date                   : UTC 2016-03-28 03:14:17\r\nWriting application            : mkvmerge v8.7.0 ('All of the above') 64bit\r\nWriting library                : libebml v1.3.3 + libmatroska v1.4.4\r\n\r\nVideo\r\nID                             : 1\r\nFormat                         : MPEG Video\r\nFormat version                 : Version 2\r\nFormat profile                 :   \r\nFormat settings, BVOP          : Yes\r\nFormat settings, Matrix        : Custom\r\nFormat settings, GOP           : M=3, N=18\r\nFormat settings, picture struc : Frame\r\nCodec ID                       : V_MPEG2\r\nCodec ID/Info                  : MPEG 1 or 2 Video\r\nDuration                       : 2h 23mn\r\nBit rate mode                  : Variable\r\nBit rate                       : 2 000 Kbps\r\nMaximum bit rate               : 9 200 Kbps\r\nWidth                          : 720 pixels\r\nHeight                         : 480 pixels\r\nDisplay aspect ratio           : 16:9\r\nFrame rate mode                : Variable\r\nFrame rate                     : 29.970 (30000/1001) fps\r\nStandard                       : NTSC\r\nColor space                    : YUV\r\nChroma subsampling             : 4:2:0\r\nBit depth                      : 8 bits\r\nScan type                      : Interlaced\r\nScan order                     : Top Field First\r\nCompression mode               : Lossy\r\nBits/(Pixel*Frame)             : 0.193\r\nTime code of first frame       : 00:00:00:00\r\nTime code source               : Group of pictures header\r\nGOP, Open/Closed               : Open\r\nGOP, Open/Closed of first fram : Closed\r\nStream size                    : 2.01 GiB (91%)\r\nWriting library                : TMPGEnc Video Mastering Works 5 Version. 5.0.6.38\r\nDefault                        : Yes\r\nForced                         : No\r\nColor primaries                : BT.601 NTSC\r\nTransfer characteristics       : BT.601\r\nMatrix coefficients            : BT.601\r\n\r\nAudio\r\nID                             : 2\r\nFormat                         : AC-3\r\nFormat/Info                    : Audio Coding 3\r\nMode extension                 : CM (complete main)\r\nFormat settings, Endianness    : Big\r\nCodec ID                       : A_AC3\r\nDuration                       : 2h 23mn\r\nBit rate mode                  : Constant\r\nBit rate                       : 192 Kbps\r\nChannel(s)                     : 2 channels\r\nChannel positions              : Front: L R\r\nSampling rate                  : 48.0 KHz\r\nFrame rate                     : 31.250 fps (1536 spf)\r\nCompression mode               : Lossy\r\nStream size                    : 197 MiB (9%)\r\nDefault                        : Yes\r\nForced                         : No\r\n\r\n\r\n\r\nScreens: \nhttp://imgh.us/Batman_vs_Superman__Dawn_of_Justice_(2016)_HDTS_x264_-_Exclusive.mkvs_2016.03.28_05.24.18.jpg","torrent":{"xt":"urn:btih:5b937e47986e0fff93d74052d973c8391bd0efb0","amp;dn":"Batman+vs+Superman+Dawn+of+Justice+%282016%29+HDTS+x264+-+Exclusive","amp;tr":["udp%3A%2F%2Ftracker.leechers-paradise.org%3A6969","udp%3A%2F%2Fzer0day.ch%3A1337","udp%3A%2F%2Fopen.demonii.com%3A1337","udp%3A%2F%2Ftracker.coppersurfer.tk%3A6969","udp%3A%2F%2Fexodus.desync.com%3A6969"],"infoHash":"5b937e47986e0fff93d74052d973c8391bd0efb0","infoHashBuffer":{"type":"Buffer","data":[91,147,126,71,152,110,15,255,147,215,64,82,217,115,200,57,27,208,239,176]},"announce":[],"urlList":[]}}